<?xml version="1.0" encoding="UTF-8"?>
<svg xmlns="http://www.w3.org/2000/svg" xmlns:xlink="http://www.w3.org/1999/xlink" viewBox="0 0 104 30" overflow="visible">
  <g>
    <path d="M 0.651 19.18 C 0.458 19.18 0.304 19.089 0.185 18.91 C 0.062 18.737 0 18.507 0 18.223 C 0 17.585 0.272 17.264 0.812 17.264 C 1.474 17.264 2.067 16.996 2.587 16.457 C 3.112 15.915 3.527 15.175 3.833 14.241 C 4.142 13.303 4.298 12.261 4.298 11.115 C 4.298 10.845 4.282 10.6 4.251 10.379 C 4.23 10.189 4.192 10.001 4.137 9.817 C 4.003 9.686 3.856 9.472 3.696 9.177 C 3.538 8.87 3.404 8.552 3.294 8.225 C 3.182 7.89 3.126 7.617 3.126 7.411 C 3.303 7.132 3.591 6.912 3.994 6.754 C 4.395 6.595 4.837 6.554 5.318 6.627 C 5.602 7.15 5.835 7.804 6.018 8.59 C 6.472 8.58 7.082 8.485 7.85 8.305 C 8.332 8.2 8.72 8.129 9.014 8.092 C 9.307 8.056 9.563 8.036 9.778 8.036 C 10.591 8.036 11.232 8.337 11.699 8.938 C 12.164 9.54 12.397 10.353 12.397 11.376 L 12.397 14.969 C 12.397 15.83 12.513 16.429 12.75 16.766 C 12.986 17.098 13.329 17.265 13.779 17.265 C 13.992 17.265 14.157 17.356 14.269 17.534 C 14.381 17.713 14.437 17.951 14.437 18.246 C 14.437 18.484 14.373 18.698 14.244 18.887 C 14.116 19.081 13.909 19.18 13.626 19.18 C 12.705 19.18 11.925 18.874 11.289 18.262 C 10.655 17.645 10.34 16.629 10.34 15.215 L 10.34 11.755 C 10.34 11.09 10.264 10.623 10.115 10.355 C 9.964 10.085 9.693 9.95 9.303 9.95 C 9.163 9.95 9.01 9.967 8.845 9.998 C 8.679 10.026 8.384 10.083 7.962 10.172 C 7.222 10.326 6.664 10.416 6.291 10.441 C 6.307 10.679 6.315 10.916 6.315 11.153 C 6.315 12.764 6.078 14.169 5.608 15.372 C 5.142 16.575 4.483 17.513 3.632 18.181 C 2.78 18.846 1.787 19.18 0.651 19.18 Z" fill="rgb(237,0,4)"/>
  </g>
</svg>