<svg width="110" height="33" viewBox="0 0 110 33" fill="none" xmlns="http://www.w3.org/2000/svg">
<path d="M0.687663 20.5347C0.483911 20.5347 0.320485 20.4381 0.195262 20.249C0.065795 20.0641 0 19.8204 0 19.5178C0 18.8413 0.286526 18.5009 0.857456 18.5009C1.55785 18.5009 2.18397 18.2152 2.73367 17.6437C3.28762 17.068 3.72696 16.2822 4.04957 15.2905C4.37642 14.2946 4.54197 13.1874 4.54197 11.9709C4.54197 11.6851 4.52499 11.4246 4.49103 11.1893C4.46132 10.9497 4.42311 10.7501 4.37218 10.5926C4.22997 10.4539 4.07504 10.227 3.90524 9.91183C3.7397 9.59247 3.59962 9.2563 3.48076 8.90332C3.36191 8.54614 3.30248 8.2562 3.30248 8.03769C3.48925 7.74144 3.79488 7.50823 4.21936 7.34014C4.64385 7.17206 5.11078 7.12794 5.62016 7.20567C5.91942 7.76035 6.16562 8.4558 6.35876 9.28992C6.83842 9.27941 7.48364 9.17856 8.2944 8.98736C8.80378 8.87601 9.21341 8.80037 9.5254 8.76045C9.83527 8.72263 10.1048 8.70162 10.3319 8.70162C11.1915 8.70162 11.8685 9.02098 12.3609 9.6597C12.8533 10.2984 13.0995 11.1619 13.0995 12.2482V16.0637C13.0995 16.9777 13.2227 17.6143 13.4731 17.9714C13.7214 18.3244 14.0844 18.5009 14.5598 18.5009C14.7847 18.5009 14.9588 18.5976 15.0776 18.7867C15.1965 18.9779 15.2559 19.23 15.2559 19.543C15.2559 19.7952 15.188 20.0221 15.0522 20.2238C14.9163 20.4297 14.6977 20.5347 14.3985 20.5347C13.4243 20.5347 12.6008 20.2091 11.928 19.5598C11.2594 18.9043 10.9262 17.8265 10.9262 16.3242V12.6516C10.9262 11.9456 10.8455 11.4498 10.6885 11.1641C10.5293 10.8783 10.2428 10.7354 9.83103 10.7354C9.68246 10.7354 9.52116 10.7522 9.34712 10.7859C9.17096 10.8153 8.85896 10.8762 8.41326 10.9708C7.63221 11.1346 7.04218 11.2292 6.64741 11.2565C6.66439 11.5086 6.67287 11.7607 6.67287 12.0129C6.67287 13.7231 6.42243 15.2149 5.92578 16.4923C5.43338 17.7697 4.73723 18.7656 3.83733 19.4758C2.93742 20.1818 1.88683 20.5347 0.687663 20.5347Z" fill="#ED0004"/>
<path d="M14.3664 20.4786C14.1626 20.4786 13.9992 20.3819 13.874 20.1928C13.7445 20.0079 13.6787 19.7642 13.6787 19.4617C13.6787 18.7851 13.9652 18.4448 14.5362 18.4448C14.9989 18.4448 15.47 18.3733 15.9455 18.2263C16.4251 18.075 16.9854 17.8186 17.6264 17.4531C17.0024 16.3773 16.6925 15.1146 16.6925 13.6628C16.6925 12.6837 16.873 11.8202 17.2359 11.0743C17.6031 10.3242 18.1124 9.73382 18.764 9.301C19.4199 8.86399 20.1648 8.64548 20.9968 8.64548C21.6972 8.64548 22.317 8.80936 22.8561 9.13292C23.3994 9.45228 23.8196 9.8977 24.121 10.4692C24.4266 11.0365 24.5795 11.692 24.5795 12.4358C24.5795 13.4443 24.2781 14.3687 23.6796 15.2091C23.0853 16.0454 22.0771 16.9488 20.6572 17.9237C21.1666 18.2893 21.8543 18.47 22.7202 18.47C22.941 18.47 23.1129 18.5666 23.2381 18.7557C23.3676 18.9469 23.4334 19.199 23.4334 19.5121C23.4334 19.8104 23.3591 20.0458 23.2126 20.218C23.0704 20.3903 22.8667 20.4786 22.6014 20.4786C21.8309 20.4786 21.1114 20.3525 20.445 20.1004C19.7764 19.8483 19.2182 19.5016 18.7725 19.0583C17.238 20.0058 15.7693 20.4786 14.3664 20.4786ZM18.7725 13.4779C18.7725 14.7217 18.9954 15.7176 19.4432 16.4614C20.4789 15.7512 21.2451 15.0558 21.7439 14.3771C22.2469 13.7006 22.4995 13.0535 22.4995 12.4358C22.4995 11.8643 22.3594 11.4189 22.0835 11.0995C21.8055 10.7759 21.4171 10.6121 20.9204 10.6121C20.2964 10.6121 19.7828 10.8894 19.3753 11.4441C18.972 11.9945 18.7725 12.6711 18.7725 13.4779Z" fill="#ED0004"/>
<path d="M37.8486 20.2854C37.6449 20.2854 37.678 20.0414 37.4544 19.8954C37.325 19.7105 37.0356 19.7108 37.0356 19.4083C37.0356 18.7317 37.3222 18.3914 37.8931 18.3914C38.4025 18.3914 38.967 18.0804 39.591 17.4585C40.2129 16.8366 40.9409 15.8323 41.7729 14.4414L44.3283 10.1552C44.2943 9.93254 44.2773 9.69302 44.2773 9.44089C44.2773 8.6509 44.4238 8.06891 44.7188 7.69282C45.0181 7.31253 45.2621 7.08352 45.4489 7.00368C45.7206 6.94275 46.0113 6.94905 46.3233 7.02049C46.6332 7.08772 46.9176 7.20328 47.1723 7.36506C47.427 7.52264 47.601 7.70963 47.6987 7.92814C47.635 8.21388 47.5161 8.55635 47.3421 8.95345C47.1659 9.34635 46.8858 9.87371 46.5016 10.5334C46.6141 10.7078 46.7584 10.8822 46.9346 11.0545C47.1086 11.2289 47.3251 11.4201 47.5798 11.626L49.3966 13.0883C50.0524 13.6094 50.5427 14.1514 50.8653 14.7103C51.1922 15.2713 51.3577 15.8995 51.3577 16.5929C51.3577 17.4291 51.12 18.1707 50.6446 18.82C50.7231 18.9944 50.7634 19.1982 50.7634 19.4335C50.7634 19.736 50.687 19.9776 50.5342 20.1562C50.3814 20.3348 50.1692 20.4252 49.8975 20.4252C49.6428 20.4252 49.3966 20.4084 49.1589 20.3747C48.9212 20.3453 48.658 20.3096 48.3693 20.2655C47.9385 20.3705 47.4822 20.4252 47.0025 20.4252C46.4464 20.4252 45.8904 20.3411 45.33 20.173C44.774 20.0113 44.1946 19.7486 43.5897 19.383C43.5557 18.5489 43.8719 17.9354 44.5405 17.5425C45.4171 18.1098 46.2469 18.3914 47.028 18.3914C47.7008 18.3914 48.2356 18.2149 48.6325 17.8619C49.0273 17.5047 49.2268 17.0509 49.2268 16.5004C49.2268 15.8071 48.8448 15.1599 48.0807 14.559L46.2639 13.1387C45.9455 12.8866 45.6611 12.6261 45.4065 12.3571L43.0124 16.3575C42.1337 17.8262 41.2932 18.8704 40.4909 19.4923C39.6865 20.1142 38.8886 20.2854 37.8486 20.2854Z" fill="white"/>
<path d="M51.2935 18.4492C51.6946 18.4492 52.1531 18.3315 52.6688 18.0962C53.1888 17.8609 53.6961 17.4617 54.1885 16.8944C54.6809 16.3229 55.0841 15.5539 55.4025 14.5833C55.7251 13.6084 55.8864 12.3877 55.8864 10.919V8.6499H54.1206C54.0059 8.39778 53.9508 8.08472 53.9508 7.70863C53.9508 7.32834 54.0059 7.01108 54.1206 6.75896H55.8864V2.56527C56.192 2.45391 56.5592 2.39719 56.9901 2.39719C57.3678 2.39719 57.7329 2.45391 58.0852 2.56527V6.75896H61.6509C61.774 7.01108 61.8377 7.32834 61.8377 7.70863C61.8377 8.08472 61.774 8.39778 61.6509 8.6499H58.0852V13.5495C58.0852 15.1295 58.3272 16.3439 58.8153 17.1886C59.3014 18.029 59.9912 18.4492 60.8868 18.4492C61.3453 18.4492 61.5745 18.798 61.5745 19.4913C61.5745 19.7939 61.4981 20.0355 61.3453 20.2141C61.1967 20.3927 60.9887 20.483 60.717 20.483C59.6813 20.483 58.8068 20.191 58.0937 19.609C57.3848 19.027 56.8648 18.2139 56.5316 17.1717C55.8631 18.3105 55.0417 19.1467 54.0696 19.6846C53.0954 20.2162 52.1127 20.483 51.1237 20.483C50.9199 20.483 50.7565 20.3842 50.6313 20.1889C50.5018 19.9935 50.436 19.7518 50.436 19.4661C50.436 19.1698 50.5082 18.9261 50.6483 18.7349C50.7905 18.5458 51.0048 18.4492 51.2935 18.4492Z" fill="white"/>
<path d="M59.5812 20.5304C59.3775 20.5304 59.214 20.4338 59.0888 20.2447C58.9593 20.0598 58.8936 19.8161 58.8936 19.5135C58.8936 18.837 59.1801 18.4966 59.751 18.4966C60.4514 18.4966 61.0775 18.2109 61.6272 17.6394C62.1812 17.0637 62.6205 16.2779 62.9431 15.2862C63.27 14.2903 63.4355 13.1831 63.4355 11.9666C63.4355 11.6808 63.4185 11.4203 63.3846 11.185C63.3549 10.9454 63.3167 10.7458 63.2657 10.5883C63.1235 10.4496 62.9686 10.2227 62.7988 9.90752C62.6333 9.58816 62.4932 9.252 62.3743 8.89902C62.2555 8.54184 62.196 8.2519 62.196 8.03339C62.3828 7.73714 62.6884 7.50392 63.1129 7.33584C63.5374 7.16775 64.0043 7.12363 64.5137 7.20137C64.813 7.75605 65.0592 8.4515 65.2523 9.28561C65.732 9.27511 66.3772 9.17426 67.188 8.98306C67.6973 8.87171 68.107 8.79607 68.419 8.75615C68.7288 8.71833 68.9984 8.69732 69.2255 8.69732C70.0851 8.69732 70.7621 9.01668 71.2545 9.6554C71.7469 10.2941 71.9931 11.1576 71.9931 12.2439V16.0594C71.9931 16.9734 72.1162 17.61 72.3666 17.9671C72.615 18.3201 72.9779 18.4966 73.4533 18.4966C73.6783 18.4966 73.8523 18.5933 73.9712 18.7824C74.0901 18.9735 74.1495 19.2257 74.1495 19.5387C74.1495 19.7909 74.0816 20.0178 73.9457 20.2195C73.8099 20.4254 73.5913 20.5304 73.292 20.5304C72.3178 20.5304 71.4943 20.2048 70.8215 19.5555C70.153 18.9 69.8198 17.8222 69.8198 16.3199V12.6473C69.8198 11.9413 69.7391 11.4455 69.582 11.1597C69.4229 10.874 69.1363 10.7311 68.7246 10.7311C68.576 10.7311 68.4147 10.7479 68.2407 10.7816C68.0645 10.811 67.7525 10.8719 67.3068 10.9665C66.5258 11.1303 65.9357 11.2249 65.541 11.2522C65.5579 11.5043 65.5664 11.7564 65.5664 12.0086C65.5664 13.7188 65.316 15.2106 64.8193 16.488C64.3269 17.7654 63.6308 18.7613 62.7309 19.4715C61.831 20.1774 60.7804 20.5304 59.5812 20.5304Z" fill="white"/>
<path d="M72.2408 18.3308C72.574 18.3308 72.9327 18.23 73.3189 18.0283C73.7031 17.8224 74.0618 17.5051 74.3971 17.0786C74.7919 16.5407 75.0806 15.9251 75.2631 15.2297C75.4499 14.5363 75.5645 13.8325 75.6112 13.1202V8.85929C75.7576 8.81517 75.9253 8.77945 76.112 8.75004C76.3031 8.71642 76.5047 8.69961 76.7148 8.69961C77.082 8.69961 77.4407 8.75424 77.793 8.85929V15.6835C77.793 16.5197 77.9225 17.1689 78.1835 17.6333C78.4488 18.0997 78.8924 18.3308 79.5164 18.3308C79.7817 18.3308 79.9621 18.4443 80.0597 18.667C80.1553 18.8855 80.2041 19.1208 80.2041 19.3729C80.2041 19.6251 80.1362 19.852 80.0003 20.0537C79.8645 20.2596 79.6459 20.3646 79.3466 20.3646C77.6869 20.3646 76.6129 19.5914 76.1205 18.0451C75.8934 18.4107 75.6536 18.7174 75.3989 18.9695C74.9681 19.396 74.4693 19.7343 73.9047 19.9864C73.338 20.2386 72.7268 20.3646 72.071 20.3646C71.8502 20.3646 71.6804 20.2575 71.5616 20.0453C71.4427 19.8331 71.3833 19.5998 71.3833 19.3477C71.3833 19.0788 71.4512 18.8435 71.5871 18.6418C71.7229 18.4359 71.9415 18.3308 72.2408 18.3308ZM76.7658 4.8589C76.3179 4.8589 75.9338 4.70342 75.6112 4.38826C75.2928 4.07521 75.1357 3.69702 75.1357 3.2537C75.1357 2.79567 75.2907 2.41118 75.6027 2.10232C75.9125 1.79557 76.3009 1.64009 76.7658 1.64009C77.2242 1.64009 77.6084 1.79557 77.9203 2.10232C78.2302 2.41118 78.3873 2.79567 78.3873 3.2537C78.3873 3.69702 78.2302 4.07521 77.9203 4.38826C77.6084 4.70342 77.2242 4.8589 76.7658 4.8589Z" fill="white"/>
<path d="M78.193 20.4786C77.9893 20.4786 77.8259 20.3819 77.7006 20.1928C77.5712 20.0079 77.5054 19.7642 77.5054 19.4617C77.5054 18.7851 77.7919 18.4448 78.3628 18.4448C78.8722 18.4448 79.3307 18.1905 79.7382 17.68C80.1457 17.1652 80.5022 16.308 80.8079 15.1083L81.521 12.3349C82.1874 9.87669 83.4651 8.64548 85.3498 8.64548C86.0672 8.64548 86.6742 8.85558 87.1666 9.27579C87.659 9.6918 88.0007 10.2549 88.1939 10.965C88.6396 10.2255 89.2148 9.65398 89.9173 9.25058C90.6177 8.84718 91.3987 8.64548 92.2604 8.64548C93.5042 8.64548 94.4635 9.04888 95.1384 9.85568C95.8176 10.6583 96.1572 11.7844 96.1572 13.2342V16.0075C96.1572 16.9215 96.2782 17.5581 96.5223 17.9153C96.7706 18.2683 97.1356 18.4448 97.6174 18.4448C97.8382 18.4448 98.0079 18.5414 98.1268 18.7305C98.2499 18.9217 98.3136 19.1738 98.3136 19.4869C98.3136 19.739 98.2457 19.9659 98.1098 20.1676C97.974 20.3735 97.7533 20.4786 97.4476 20.4786C96.4734 20.4786 95.6521 20.1529 94.9856 19.5037C94.3171 18.8482 93.9838 17.7703 93.9838 16.2681V13.2342C93.9838 11.5323 93.3047 10.6793 91.9463 10.6793C91.2438 10.6793 90.6262 10.9566 90.0956 11.5113C89.5628 12.0618 89.1468 12.8266 88.8476 13.8056C88.5526 14.7868 88.4061 15.9235 88.4061 17.2177V20.1508C88.2469 20.1949 88.0708 20.2349 87.8798 20.2685C87.693 20.3021 87.5105 20.3189 87.3364 20.3189C86.9501 20.3189 86.5915 20.2622 86.2582 20.1508V12.5954C86.2582 11.318 85.8889 10.6793 85.1546 10.6793C84.8192 10.6793 84.5348 10.8306 84.2971 11.1331C84.0594 11.4315 83.8514 11.9126 83.6774 12.5786L82.786 15.9823C82.3721 17.5455 81.7969 18.6864 81.0625 19.4028C80.3324 20.1214 79.3752 20.4786 78.193 20.4786Z" fill="white"/>
<path d="M96.4019 18.313C96.9452 18.313 97.4737 18.0539 97.9895 17.5336C98.5095 17.0092 98.9445 16.3044 99.2969 15.4194C99.2799 15.1996 99.2714 14.9799 99.2714 14.7644C99.2714 13.5829 99.5091 12.532 99.9845 11.6137C100.464 10.6913 101.116 9.96792 101.937 9.44143C102.756 8.91079 103.695 8.64548 104.747 8.64548C105.308 8.64548 105.855 8.75119 106.394 8.96054C106.938 9.17197 107.392 9.45594 107.761 9.81453V8.85276C107.908 8.80923 108.075 8.77399 108.262 8.74497C108.453 8.71181 108.655 8.69522 108.865 8.69522C109.243 8.69522 109.603 8.74912 109.943 8.85276V26.3969C109.943 28.2976 109.603 29.7071 108.924 30.6254C108.245 31.5415 107.154 32.0017 105.656 32.0017C104.539 32.0017 103.622 31.6224 102.905 30.8658C102.192 30.1134 101.835 29.1205 101.835 27.8893C101.835 25.0247 103.849 22.3466 107.88 19.8551V18.827C107.432 19.2976 106.906 19.6644 106.301 19.9298C105.694 20.1889 105.036 20.3194 104.323 20.3194C103.393 20.3194 102.576 20.1225 101.869 19.7308C101.16 19.3328 100.583 18.7835 100.137 18.0808C99.1462 19.5732 97.8451 20.3194 96.2321 20.3194C96.0283 20.3194 95.8649 20.2241 95.7397 20.0375C95.6102 19.8551 95.5444 19.6147 95.5444 19.3162C95.5444 18.6488 95.831 18.313 96.4019 18.313ZM101.496 14.7644C101.496 15.8712 101.753 16.7377 102.268 17.3678C102.788 17.9979 103.503 18.313 104.416 18.313C105.418 18.313 106.224 17.9523 106.836 17.2268C107.451 16.5034 107.761 15.5499 107.761 14.3664V12.0531C107.443 11.6344 107.035 11.2966 106.539 11.0416C106.046 10.7825 105.537 10.6519 105.01 10.6519C104.325 10.6519 103.72 10.8323 103.194 11.1909C102.667 11.5515 102.251 12.0366 101.946 12.6501C101.644 13.2637 101.496 13.9684 101.496 14.7644ZM103.941 27.7981C103.941 28.4987 104.098 29.0459 104.416 29.4397C104.732 29.8377 105.172 30.0367 105.732 30.0367C106.479 30.0367 107.022 29.7299 107.362 29.1164C107.706 28.5028 107.88 27.5949 107.88 26.3969V22.2596C105.252 24.067 103.941 25.9118 103.941 27.7981Z" fill="white"/>
<path d="M23.9888 18.3935C24.5321 18.3935 25.0606 18.1308 25.5764 17.6035C26.0964 17.0719 26.5315 16.3576 26.8838 15.4604C26.8668 15.2377 26.8583 15.015 26.8583 14.7965C26.8583 13.5989 27.096 12.5337 27.5714 11.6029C28.0511 10.6679 28.7027 9.93466 29.5241 9.40099C30.3433 8.86313 31.2814 8.59419 32.3342 8.59419C32.8945 8.59419 33.4421 8.70135 33.9812 8.91355C34.5245 9.12786 34.9787 9.4157 35.348 9.77918V0.215218C35.6536 0.103863 36.0208 0.0471344 36.4517 0.0471344C36.8188 0.0471344 37.1775 0.103863 37.5298 0.215218V15.9563C37.5298 16.8702 37.6508 17.5068 37.8949 17.864C38.1432 18.217 38.5062 18.3935 38.9816 18.3935C39.2066 18.3935 39.3806 18.4901 39.4994 18.6792C39.6183 18.8704 39.6777 19.1225 39.6777 19.4356C39.6777 19.6877 39.6098 19.9146 39.474 20.1163C39.3381 20.3222 39.1195 20.4273 38.8203 20.4273C38.1623 20.4273 37.5638 20.2781 37.0205 19.9819C36.4814 19.6793 36.0696 19.2066 35.781 18.5616C35.3162 19.1456 34.7537 19.6016 34.0915 19.9314C33.4293 20.2613 32.7013 20.4273 31.9097 20.4273C30.9801 20.4273 30.1629 20.2277 29.4562 19.8306C28.7473 19.4272 28.17 18.8704 27.7243 18.1582C26.7331 19.6709 25.4321 20.4273 23.819 20.4273C23.6153 20.4273 23.4518 20.3306 23.3266 20.1415C23.1971 19.9567 23.1313 19.7129 23.1313 19.4104C23.1313 18.7338 23.4179 18.3935 23.9888 18.3935ZM29.0826 14.7965C29.0826 15.9184 29.3394 16.7967 29.8552 17.4354C30.3752 18.0741 31.0904 18.3935 32.0031 18.3935C33.0048 18.3935 33.8114 18.0279 34.4226 17.2925C35.0381 16.5593 35.348 15.5928 35.348 14.3931V12.0483C35.0296 11.6239 34.6221 11.2814 34.1255 11.023C33.6331 10.7604 33.1237 10.628 32.5973 10.628C31.9118 10.628 31.3069 10.8108 30.7805 11.1743C30.2542 11.5399 29.8382 12.0315 29.5326 12.6534C29.2312 13.2753 29.0826 13.9897 29.0826 14.7965Z" fill="#ED0004"/>
<mask id="mask0_3495_25499" style="mask-type:luminance" maskUnits="userSpaceOnUse" x="74" y="0" width="5" height="5">
<path d="M74.6055 0.925552H78.6805V4.95956H74.6055V0.925552Z" fill="white"/>
</mask>
<g mask="url(#mask0_3495_25499)">
<path fill-rule="evenodd" clip-rule="evenodd" d="M76.7385 0.925552C77.9164 0.925552 78.8715 1.87102 78.8715 3.03711C78.8715 4.20319 77.9164 5.14866 76.7385 5.14866C75.5606 5.14866 74.6055 4.20319 74.6055 3.03711C74.6055 1.87102 75.5606 0.925552 76.7385 0.925552Z" fill="#ED0004"/>
</g>
</svg>
